<?xml version="1.0" encoding="UTF-8" standalone="no"?>
<!DOCTYPE svg PUBLIC "-//W3C//DTD SVG 1.1//EN" "http://www.w3.org/Graphics/SVG/1.1/DTD/svg11.dtd">
<svg width="100%" height="100%" viewBox="0 0 24 24" version="1.1" xmlns="http://www.w3.org/2000/svg" xmlns:xlink="http://www.w3.org/1999/xlink" xml:space="preserve" xmlns:serif="http://www.serif.com/" style="fill-rule:evenodd;clip-rule:evenodd;stroke-linejoin:round;stroke-miterlimit:2;fill:currentColor">
    <path d="M22.722,18.756L3.178,18.756L3.178,5.416L1.278,5.416L1.278,19.706C1.278,20.231 1.703,20.656 2.228,20.656L22.722,20.656L22.722,18.756ZM18.026,17.714L18.026,5.734L16.126,5.734L16.126,17.714L18.026,17.714ZM6.12,17.714L6.12,12.893L4.22,12.893L4.22,17.714L6.12,17.714ZM12.073,17.714L12.073,10.965L10.173,10.965L10.173,17.714L12.073,17.714ZM9.097,17.714L9.097,9.973L7.197,9.973L7.197,17.714L9.097,17.714ZM21.002,17.714L21.002,9.973L19.102,9.973L19.102,17.714L21.002,17.714ZM15.049,17.714L15.049,3.344L13.149,3.344L13.149,17.714L15.049,17.714Z"/>
</svg>
