<?xml version="1.0" encoding="UTF-8" standalone="no"?>
<!DOCTYPE svg PUBLIC "-//W3C//DTD SVG 1.1//EN" "http://www.w3.org/Graphics/SVG/1.1/DTD/svg11.dtd">
<svg width="100%" height="100%" viewBox="0 0 24 24" version="1.1" xmlns="http://www.w3.org/2000/svg" xmlns:xlink="http://www.w3.org/1999/xlink" xml:space="preserve" xmlns:serif="http://www.serif.com/" style="fill-rule:evenodd;clip-rule:evenodd;stroke-linejoin:round;stroke-miterlimit:2;fill:currentColor">
    <path d="M11.611,11.046C10.969,10.138 10.592,9.03 10.592,7.835C10.592,4.759 13.09,2.262 16.165,2.262C19.241,2.262 21.738,4.759 21.738,7.835C21.738,10.91 19.241,13.408 16.165,13.408C14.97,13.408 13.862,13.031 12.954,12.389L11.441,13.903L13.202,15.664L11.859,17.008L10.097,15.246L9.042,16.302L10.803,18.063L9.46,19.407L7.698,17.645L6.643,18.701L8.404,20.462L7.061,21.806L5.299,20.044L3.538,21.806L2.194,20.462L11.611,11.046ZM16.165,4.162C18.193,4.162 19.838,5.807 19.838,7.835C19.838,9.862 18.193,11.508 16.165,11.508C14.138,11.508 12.492,9.862 12.492,7.835C12.492,5.807 14.138,4.162 16.165,4.162Z"/>
</svg>
