<?xml version="1.0" encoding="UTF-8" standalone="no"?>
<!DOCTYPE svg PUBLIC "-//W3C//DTD SVG 1.1//EN" "http://www.w3.org/Graphics/SVG/1.1/DTD/svg11.dtd">
<svg width="100%" height="100%" viewBox="0 0 27 27" version="1.1" xmlns="http://www.w3.org/2000/svg" xmlns:xlink="http://www.w3.org/1999/xlink" xml:space="preserve" xmlns:serif="http://www.serif.com/" style="fill-rule:evenodd;clip-rule:evenodd;stroke-linecap:round;stroke-linejoin:round;stroke-miterlimit:1.5;">
    <path d="M7,15C7,14.448 6.552,14 6,14L3,14C2.448,14 2,14.448 2,15L2,24C2,24.552 2.448,25 3,25L6,25C6.552,25 7,24.552 7,24L7,15ZM25,19C25,18.448 24.552,18 24,18L21,18C20.448,18 20,18.448 20,19L20,24C20,24.552 20.448,25 21,25L24,25C24.552,25 25,24.552 25,24L25,19ZM16,7C16,6.448 15.552,6 15,6L12,6C11.448,6 11,6.448 11,7L11,24C11,24.552 11.448,25 12,25L15,25C15.552,25 16,24.552 16,24L16,7Z" style="fill:none;stroke:white;stroke-width:2px;"/>
</svg>
