<?xml version="1.0" encoding="UTF-8" standalone="no"?>
<!DOCTYPE svg PUBLIC "-//W3C//DTD SVG 1.1//EN" "http://www.w3.org/Graphics/SVG/1.1/DTD/svg11.dtd">
<svg width="100%" height="100%" viewBox="0 0 128 128" version="1.1" xmlns="http://www.w3.org/2000/svg" xmlns:xlink="http://www.w3.org/1999/xlink" xml:space="preserve" xmlns:serif="http://www.serif.com/" style="fill-rule:evenodd;clip-rule:evenodd;stroke-linejoin:round;stroke-miterlimit:2;">
    <g transform="matrix(1.02052,0,0,1.02052,-30.3134,0)">
        <path d="M92.417,0L120.834,28.417L92.417,56.834L64,28.417L92.417,0Z" style="fill:currentColor;"/>
    </g>
    <g transform="matrix(1.02052,0,0,1.02052,-65.3134,35)">
        <path d="M92.417,0L120.834,28.417L92.417,56.834L64,28.417L92.417,0Z" style="fill:currentColor;"/>
    </g>
    <g transform="matrix(1.02052,0,0,1.02052,-30.3134,70)">
        <path d="M92.417,0L120.834,28.417L92.417,56.834L64,28.417L92.417,0Z" style="fill:currentColor;"/>
    </g>
    <g transform="matrix(1.02052,0,0,1.02052,4.68664,35)">
        <path d="M92.417,0L120.834,28.417L92.417,56.834L64,28.417L92.417,0Z" style="fill:currentColor;"/>
    </g>
</svg>
