<?xml version="1.0" encoding="UTF-8" standalone="no"?>
<!DOCTYPE svg PUBLIC "-//W3C//DTD SVG 1.1//EN" "http://www.w3.org/Graphics/SVG/1.1/DTD/svg11.dtd">
<svg width="100%" height="100%" viewBox="0 0 512 512" version="1.1" xmlns="http://www.w3.org/2000/svg" xmlns:xlink="http://www.w3.org/1999/xlink" xml:space="preserve" xmlns:serif="http://www.serif.com/" style="fill-rule:evenodd;clip-rule:evenodd;stroke-linecap:round;stroke-linejoin:round;stroke-miterlimit:1.5;">
    <g transform="matrix(-10.358,3.70028,-3.70028,-10.358,1540.81,744.029)">
        <path d="M94.835,63.86C103.02,63.86 109.879,69.585 111.621,77.246C111.901,78.477 112.049,79.758 112.049,81.073C112.049,90.573 104.336,98.286 94.835,98.286C85.335,98.286 77.622,90.573 77.622,81.073" style="fill:none;stroke:currentColor;stroke-width:2.08px;"/>
    </g>
    <g transform="matrix(5.34233,0,0,6.44188,-154.919,-253.448)">
        <path d="M103.466,110.865C102.17,108.505 101.487,105.758 101.487,102.562C101.487,91.828 109.25,81.997 122.108,74.411" style="fill:none;stroke:currentColor;stroke-width:3.86px;"/>
    </g>
    <g transform="matrix(14.3668,0,0,14.1753,-932.662,-1342.86)">
        <ellipse cx="81.125" cy="107.932" rx="2.442" ry="2.475" style="fill:currentColor;stroke:currentColor;stroke-width:1.6px;"/>
    </g>
</svg>
